<?xml version="1.0" standalone="no"?>
<!DOCTYPE svg PUBLIC "-//W3C//DTD SVG 20010904//EN"
 "http://www.w3.org/TR/2001/REC-SVG-20010904/DTD/svg10.dtd">
<svg version="1.0" xmlns="http://www.w3.org/2000/svg"
 width="117.000000pt" height="62.000000pt" viewBox="0 0 117.000000 62.000000"
 preserveAspectRatio="xMidYMid meet">

<g transform="translate(0.000000,62.000000) scale(0.100000,-0.100000)"
fill="#000000" stroke="none">
<path d="M525 430 c11 -5 16 -9 10 -10 -54 -8 -70 -13 -91 -27 -14 -9 -34 -29
-45 -44 l-20 -29 27 10 26 10 -31 -35 c-17 -20 -31 -43 -31 -53 0 -9 -7 -30
-15 -46 -8 -15 -15 -29 -15 -31 0 -1 27 -8 61 -15 71 -15 136 -56 185 -116 39
-47 84 -61 84 -26 0 45 -25 97 -66 138 -40 41 -44 49 -44 95 0 32 -6 56 -16
66 -8 9 -14 27 -12 42 3 22 8 26 38 27 26 1 28 1 8 -3 -31 -5 -38 -32 -13 -53
9 -8 15 -30 15 -57 0 -53 34 -111 55 -93 9 8 17 4 29 -15 14 -21 20 -24 32
-14 16 13 19 59 4 59 -16 0 -12 46 6 60 13 11 16 10 21 -8 7 -29 15 -28 48 9
l28 32 -43 36 c-24 20 -57 41 -74 48 -30 11 -30 12 -6 13 24 1 25 1 5 16 -12
9 -30 12 -46 9 -15 -4 -30 -1 -34 4 -3 6 -27 11 -53 10 -35 0 -42 -3 -27 -9z
m195 -80 c0 -5 -6 -10 -14 -10 -8 0 -18 5 -21 10 -3 6 3 10 14 10 12 0 21 -4
21 -10z"/>
</g>
</svg>
